<svg xmlns="http://www.w3.org/2000/svg" viewBox="0 0 1200 800">
  <defs>
    <linearGradient id="bg" x1="0" y1="0" x2="0" y2="1">
      <stop offset="0%" stop-color="#0a0a0a"/>
      <stop offset="100%" stop-color="#0d0d0d"/>
    </linearGradient>
    <linearGradient id="accent" x1="0" y1="0" x2="1" y2="1">
      <stop offset="0%" stop-color="#16a34a"/>
      <stop offset="100%" stop-color="#15803d"/>
    </linearGradient>
    <linearGradient id="glow" x1="0.5" y1="0" x2="0.5" y2="1">
      <stop offset="0%" stop-color="#16a34a" stop-opacity="0.12"/>
      <stop offset="100%" stop-color="#16a34a" stop-opacity="0"/>
    </linearGradient>
  </defs>
  <rect width="1200" height="800" fill="url(#bg)"/>
  <ellipse cx="400" cy="350" rx="350" ry="300" fill="url(#glow)"/>
  <rect x="0" y="0" width="1200" height="64" fill="#0a0a0a" opacity="0.9"/>
  <rect x="0" y="64" width="1200" height="1" fill="#222"/>
  <polygon points="40,32 50,26 60,32 60,44 50,50 40,44" fill="none" stroke="#16a34a" stroke-width="1.5"/>
  <circle cx="50" cy="38" r="2" fill="#16a34a"/>
  <text x="72" y="44" fill="#fff" font-family="system-ui" font-size="18" font-weight="600">riccardobozzato.dev</text>
  <rect x="200" y="100" width="110" height="26" rx="13" fill="#16a34a" opacity="0.1"/>
  <rect x="210" y="108" width="16" height="10" rx="1" fill="#16a34a" opacity="0.5"/>
  <text x="232" y="117" fill="#16a34a" font-family="system-ui" font-size="11" font-weight="600">Free Download</text>
  <text x="200" y="160" fill="#fff" font-family="system-ui" font-size="36" font-weight="700">AI + Ops + Security</text>
  <text x="200" y="198" fill="#fff" font-family="system-ui" font-size="36" font-weight="700">Playbook</text>
  <text x="200" y="235" fill="#888" font-family="system-ui" font-size="15">A practical guide to aligning security</text>
  <text x="200" y="257" fill="#888" font-family="system-ui" font-size="15">with operations using AI-driven workflows.</text>
  <text x="200" y="300" fill="#666" font-family="system-ui" font-size="13">Learn how to automate security controls, measure</text>
  <text x="200" y="320" fill="#666" font-family="system-ui" font-size="13">their impact on ops metrics, and build a culture</text>
  <text x="200" y="340" fill="#666" font-family="system-ui" font-size="13">where security enables velocity, not hinders it.</text>
  <text x="200" y="385" fill="#fff" font-family="system-ui" font-size="16" font-weight="600">What Inside</text>
  <rect x="200" y="405" width="20" height="20" rx="4" fill="#16a34a" opacity="0.15"/>
  <text x="209" y="420" fill="#16a34a" font-family="system-ui" font-size="11" font-weight="700">#10003;</text>
  <text x="230" y="419" fill="#888" font-family="system-ui" font-size="13">Ops-Security Alignment Framework</text>
  <rect x="200" y="435" width="20" height="20" rx="4" fill="#16a34a" opacity="0.15"/>
  <text x="209" y="450" fill="#16a34a" font-family="system-ui" font-size="11" font-weight="700">#10003;</text>
  <text x="230" y="449" fill="#888" font-family="system-ui" font-size="13">AI-powered threat detection workflows</text>
  <rect x="200" y="465" width="20" height="20" rx="4" fill="#16a34a" opacity="0.15"/>
  <text x="209" y="480" fill="#16a34a" font-family="system-ui" font-size="11" font-weight="700">#10003;</text>
  <text x="230" y="479" fill="#888" font-family="system-ui" font-size="13">Policy-as-code templates and automation scripts</text>
  <rect x="200" y="495" width="20" height="20" rx="4" fill="#16a34a" opacity="0.15"/>
  <text x="209" y="510" fill="#16a34a" font-family="system-ui" font-size="11" font-weight="700">#10003;</text>
  <text x="230" y="509" fill="#888" font-family="system-ui" font-size="13">Metric-driven security control evaluation</text>
  <rect x="200" y="545" width="420" height="70" rx="12" fill="#111" stroke="#222"/>
  <rect x="215" y="560" width="14" height="14" rx="1" fill="#555"/>
  <text x="240" y="572" fill="#888" font-family="system-ui" font-size="12">Want it instantly? No email required</text>
  <text x="240" y="597" fill="#16a34a" font-family="system-ui" font-size="13" font-weight="500">Download PDF directly</text>
  <rect x="680" y="100" width="420" height="500" rx="16" fill="#111" stroke="#16a34a" stroke-opacity="0.2"/>
  <rect x="680" y="100" width="420" height="500" rx="16" fill="url(#accent)" opacity="0.02"/>
  <ellipse cx="890" cy="100" rx="120" ry="100" fill="#16a34a" opacity="0.04"/>
  <text x="890" y="140" fill="#fff" font-family="system-ui" font-size="18" font-weight="600" text-anchor="middle">Get Your Free Copy</text>
  <text x="710" y="190" fill="#ccc" font-family="system-ui" font-size="12">Name</text>
  <rect x="710" y="200" width="360" height="42" rx="8" fill="#0d0d0d" stroke="#333"/>
  <text x="725" y="227" fill="#555" font-family="system-ui" font-size="12">Your Name</text>
  <text x="710" y="270" fill="#ccc" font-family="system-ui" font-size="12">Email</text>
  <rect x="710" y="280" width="360" height="42" rx="8" fill="#0d0d0d" stroke="#333"/>
  <text x="725" y="307" fill="#555" font-family="system-ui" font-size="12">your@email.com</text>
  <rect x="710" y="360" width="360" height="46" rx="10" fill="url(#accent)"/>
  <text x="890" y="388" fill="#fff" font-family="system-ui" font-size="14" font-weight="600" text-anchor="middle">Download Playbook</text>
  <text x="890" y="435" fill="#666" font-family="system-ui" font-size="11" text-anchor="middle">No spam. Unsubscribe anytime. PDF delivered to your inbox.</text>
  <text x="890" y="465" fill="#555" font-family="system-ui" font-size="11" text-anchor="middle">Your data is safe.</text>
  <rect x="710" y="500" width="360" height="70" rx="10" fill="#0d0d0d" stroke="#222"/>
  <text x="890" y="530" fill="#666" font-family="system-ui" font-size="11" text-anchor="middle">"Exactly what I needed to align my security</text>
  <text x="890" y="548" fill="#666" font-family="system-ui" font-size="11" text-anchor="middle">and ops teams. Practical, actionable."</text>
  <text x="890" y="565" fill="#888" font-family="system-ui" font-size="10" text-anchor="middle">- Early reader</text>
</svg>